<?xml version="1.0" encoding="UTF-8"?>
<svg xmlns="http://www.w3.org/2000/svg" xmlns:xlink="http://www.w3.org/1999/xlink" viewBox="0 0 783.47 988.99">
  <defs>
    <style>
      .cls-1 {
        fill: #fbd611;
      }

      .cls-1, .cls-2, .cls-3, .cls-4, .cls-5, .cls-6, .cls-7, .cls-8, .cls-9, .cls-10, .cls-11, .cls-12, .cls-13, .cls-14, .cls-15, .cls-16, .cls-17, .cls-18, .cls-19, .cls-20, .cls-21 {
        stroke-width: 0px;
      }

      .cls-2 {
        fill: #4c2922;
        opacity: .1;
      }

      .cls-3, .cls-13, .cls-18 {
        fill: #000;
      }

      .cls-4, .cls-21 {
        fill: #4f0218;
      }

      .cls-5, .cls-16 {
        fill: #f9e9d9;
      }

      .cls-6 {
        fill: none;
      }

      .cls-22 {
        filter: url(#drop-shadow-1);
      }

      .cls-7 {
        fill: #f9b04f;
      }

      .cls-8 {
        fill: #fffdfd;
      }

      .cls-9 {
        fill: red;
      }

      .cls-10 {
        fill: #f99c2a;
      }

      .cls-11 {
        fill: #fa0a17;
      }

      .cls-12 {
        fill: #ea58a0;
      }

      .cls-13, .cls-14, .cls-16 {
        fill-rule: evenodd;
      }

      .cls-14 {
        fill: #330909;
        opacity: .13;
      }

      .cls-15 {
        fill: #db8b23;
      }

      .cls-17 {
        fill: #fff;
      }

      .cls-18 {
        opacity: .17;
      }

      .cls-19 {
        fill: #f0d7bd;
      }

      .cls-20 {
        fill: #f4ada2;
      }

      .cls-21 {
        opacity: .31;
      }
    </style>
    <filter id="drop-shadow-1" filterUnits="userSpaceOnUse">
      <feOffset dx="7" dy="7"/>
      <feGaussianBlur result="blur" stdDeviation="5"/>
      <feFlood flood-color="#000" flood-opacity=".75"/>
      <feComposite in2="blur" operator="in"/>
      <feComposite in="SourceGraphic"/>
    </filter>
  </defs>
  <g id="ART">
    <g>
      <ellipse class="cls-2" cx="366.45" cy="926.92" rx="342.72" ry="62.07"/>
      <path class="cls-4" d="M660.72,398.26c1.43-30.15-12.63-97.08-34.81-140.3-.76-1.49-.76-3.11.02-4.6,38.66-73.78,38.19-182.27-9.31-251.21-1.01-1.47-2.58-2.24-4.36-2.15-70.46,3.49-130.63,36.32-170.25,94.1-1.22,1.78-3.33,2.56-5.41,2-39.56-10.6-79.74-10.6-119.3,0-2.08.56-4.19-.22-5.41-2C272.27,36.32,212.1,3.5,141.63,0c-1.78-.09-3.35.69-4.36,2.15-47.5,68.94-47.97,177.43-9.31,251.21.78,1.48.78,3.11.02,4.6-21.62,42.12-33.96,87.79-33.96,131.73,0,52.14,19.33,94.65,50.83,127.51.62.64,23.36,25.85,33.49,35.09.74.67-27.05,1.55-27.3,2.51-7.84,29.84-7.56,58.89-7.56,91.18,0,21.15,2.94,41.62,8.11,60.77.29,1.07.24,2.07-.16,3.1-3.26,8.44-16.31,30.13-66.19,40.95-.32.07-.59.1-.91.11-19.82.58-36.91,10.43-48.91,26.61-26.95,36.31-20.85,92.67,8.21,126.27,23.13,26.73,56.82,34.38,83.55,19.22,1.13-.64,2.32-.82,3.59-.52,66.41,15.45,161.01,10.69,246.18,10.69s181.69,4.76,248.16-10.76c1.26-.29,2.44-.13,3.57.5,25.21,14.08,58.03,10.05,83.27-19.13,47.05-54.38,26.26-151.07-42.23-152.89-35.64-.5-67.45-34.46-84.87-62.78-1.62-2.63-55.26-103.65-52.41-104.84,81.43-33.85,125.71-131.05,128.27-185.02Z"/>
      <path class="cls-7" d="M152.72,24.56c-2.01-.16-3.82.81-4.79,2.59-32.14,58.94-29.64,135.69-3.24,194.84,1.27,2.86,2.44.71,5.06-2.98,41.91-58.97,120.39-104.98,122.06-105.79,4.61-2.25,9.28-4.36,14-6.33,3.01-1.26,4.03-4.97,2.09-7.59C254.84,54.82,208.33,29.05,152.72,24.56Z"/>
      <path class="cls-15" d="M206.31,113.42c-38.61,9.95-64.59-49.08-75.84-40.59-19.89,70.31,10,146.62,15.52,150.47,1.52,1.07,12.15-25.99,115.51-103.8,4.1-3.08,19.59-10.65,24.31-12.62,3.01-1.26,4.03-4.97,2.09-7.59-8.8-11.84-36.02-.26-81.59,14.12Z"/>
      <path class="cls-5" d="M544.97,365.89c-26.61,0-48.06,6.81-71.93,16.83-4.48,1.88-6.45-2.41-8.14-5.09-38.31-60.75-137.59-60.75-175.9,0-1.69,2.68-3.66,6.97-8.14,5.09-23.87-10.02-45.32-16.83-71.93-16.83-33.29,0-66.92,13.86-66.92,49.42,0,38.29,28.5,71.48,67.4,96.81,106,69,229.08,69,335.07,0,38.9-25.32,67.4-58.52,67.4-96.81,0-35.57-33.63-49.42-66.92-49.42Z"/>
      <path class="cls-19" d="M192.13,367.12c-26.93,4.09-50.12,18.65-50.12,48.19,0,38.29,28.5,71.48,67.4,96.8,65.35,42.54,137.18,58.84,207.51,48.93-220.03-9.32-267.1-165.25-224.78-193.93Z"/>
      <path class="cls-7" d="M376.95,106.85c-143.94,0-259.31,151.9-259.45,283.89,0,5.55,7.77,6.94,9.68,1.72,11.2-30.56,45.24-45.23,81.75-45.22,20.98,0,43.84,4.66,65.31,12.64,2.06.77,4.29.14,5.66-1.59,47.45-60.04,146.66-60.05,194.11,0,1.37,1.73,3.59,2.35,5.65,1.59,21.48-7.98,44.34-12.6,65.31-12.6,36.51,0,70.54,14.63,81.75,45.19,1.91,5.22,9.68,3.83,9.68-1.72-.14-131.98-115.51-283.89-259.45-283.89Z"/>
      <path class="cls-15" d="M117.5,390.74c0,5.55,7.77,6.94,9.68,1.72,5.87-16,17.99-27.64,33.45-35.1h0c1.54-130.81,85.8-206.06,89.34-209.17-79.18,54.21-132.38,152.96-132.48,242.55Z"/>
      <path class="cls-7" d="M601.18,24.56c-55.61,4.5-102.13,30.26-135.18,74.74-1.94,2.62-.92,6.33,2.08,7.59,4.72,1.97,9.57,3.74,14,6.33,80.16,46.83,88.74,61.53,122.06,105.81,2.34,3.11,4.15,8.51,6.07,4.66,27.6-55.11,27.87-137.59-4.25-196.54-.97-1.77-2.78-2.75-4.79-2.59Z"/>
      <path class="cls-15" d="M485.62,76.63c-6.98,6.91-13.53,14.47-19.62,22.67-1.94,2.62-.87,6.2,2.08,7.59,90.57,42.42,128.44,106.86,140.33,119.27,1.29,1.34,33.43-60.07,17.77-141.4-15.63-.4-51.1,79.35-140.56-8.12Z"/>
      <path class="cls-7" d="M567.32,551.09c-20.51,13.07-43.51,23.58-68.03,31.55-1.83.59-3.16,1.85-3.87,3.64-11.14,28.2-30.15,62.28-62.83,92.14-4.32,3.95-10.53-2.58-5.42-7.57,22.43-21.88,36.96-47.36,46.49-70.84,1.89-4.67-2.22-9.53-7.14-8.42-57.89,12.98-121.35,12.98-179.24-.01-4.71-1.06-8.77,3.37-7.3,7.97,13.52,42.41,36.52,95.75,73.62,133.63,4,4.09-2,10.54-7.15,5.72-49.17-46.06-75.67-108.65-89.19-152.61-.61-1.99-2.03-3.43-4.01-4.09-21.51-7.08-43.05-16.67-61.52-27.7-3.98-2.38-7.56,2.03-6.07,6.42,23.33,68.64,77.41,183.85,189,240.63,1.47.75,3.06.75,4.53,0,113.12-57.54,170.54-175.77,195.49-244.56,1.62-4.47-3.36-8.47-7.38-5.91Z"/>
      <path class="cls-12" d="M495.42,586.27c-11.14,28.2-30.15,62.28-62.83,92.14,0,0,88.05-47.5,107.57-112.18-12.99,6.32-26.67,11.79-40.87,16.4-1.83.59-3.16,1.85-3.87,3.64Z"/>
      <path class="cls-12" d="M361.08,601.02c-25.02-.93-49.88-4.08-73.79-9.44-4.71-1.06-8.77,3.37-7.3,7.97,13.52,42.41,36.52,95.75,73.62,133.63-30.22-60.88-42.38-113.02,7.48-132.16Z"/>
      <path class="cls-5" d="M40.22,840c4.44,59.21,60.81,91.12,90.48,51.15,20.76-27.97,15.14-73.28-7.19-99.09-36.21-41.85-87.74-11.41-83.29,47.95Z"/>
      <path class="cls-19" d="M42.93,810.73c-2.47,8.63-3.52,18.47-2.71,29.27,4.44,59.21,60.81,91.12,90.48,51.15,2.48-3.34,4.58-6.93,6.32-10.71-90.02,25.87-94.04-68.5-94.09-69.71Z"/>
      <path class="cls-5" d="M669.71,772.71c-46.76,0-76.09,76.35-44.85,118.44,31.11,41.92,90.72,4.56,90.72-57.9,0-29.55-16.45-60.54-45.87-60.54Z"/>
      <path class="cls-19" d="M626.28,799.78c-16.88,26.07-20.78,65.29-1.42,91.37,19.64,26.46,50.63,21.32,70.81-1.77-91.24,13.98-69.59-88.67-69.39-89.6Z"/>
      <path class="cls-7" d="M422.15,801.62c-2.45,1.17-44.88,1.19-47.47-.06-18.81-9.06-33.3,7.01-49.5-4.37-2.66-1.87-6.34-.76-7.52,2.27-3.15,8.09-7.98,15.29-15.26,21.17-42.97,34.67-106.22-7.17-138.43-79.07-1.43-3.19-5.57-3.97-8.06-1.51-6.35,6.26-14.89,12.71-26.36,18.48-3.26,1.64-3.72,6.07-.88,8.35,35.6,28.61,47.55,86.52,25.94,127.03-1.6,3,.17,6.66,3.52,7.26,63.02,11.29,146.94,10.21,218.82,10.21s158.16,3,221.5-8.09c3.42-.6,5.19-4.38,3.47-7.39-22.52-39.44-11.79-98.53,23.99-128.21,2.69-2.24,2.31-6.47-.74-8.19-40.59-22.84-63.14-66.38-71.22-83.37-1.26-2.65,0-5.78,2.74-6.81,70.45-26.65,25.29,56.12-134.54,132.31Z"/>
      <path class="cls-15" d="M590.45,856.99c-141.87,53.95-268.22,3.13-320.19-24.03-38.21,1.56-81.47-35.99-106.29-91.4-1.43-3.19-5.57-3.97-8.06-1.51-6.35,6.26-14.89,12.71-26.36,18.47-3.26,1.64-3.72,6.07-.88,8.35,35.6,28.61,47.55,86.52,25.94,127.03-1.6,3,.17,6.66,3.52,7.26,63.02,11.29,146.94,10.21,218.82,10.21s158.16,3,221.5-8.09c3.42-.6,5.19-4.38,3.47-7.39-6.66-11.67-10.41-25.06-11.47-38.9Z"/>
      <g>
        <path class="cls-20" d="M78.57,786.14c-6.96.84-11.76,8.45-10.72,17,1.03,8.55,7.51,14.8,14.46,13.96,6.96-.84,11.76-8.45,10.72-17-1.03-8.55-7.51-14.8-14.46-13.96Z"/>
        <path class="cls-20" d="M108.4,792.95c-6.96.84-11.76,8.45-10.72,17,1.03,8.55,7.51,14.8,14.46,13.96,6.95-.84,11.76-8.45,10.72-17-1.03-8.55-7.51-14.8-14.46-13.96Z"/>
        <path class="cls-20" d="M56.08,812.64c-6.62,2.29-9.71,10.74-6.91,18.88,2.81,8.14,10.46,12.89,17.08,10.6,6.62-2.29,9.71-10.74,6.9-18.88-2.81-8.14-10.46-12.89-17.08-10.6Z"/>
        <path class="cls-20" d="M93.48,830.93c-13.3,1.94-22.03,17.64-19.49,35.06,2.54,17.43,15.38,29.98,28.68,28.04,13.3-1.94,22.03-17.63,19.49-35.06-2.54-17.43-15.38-29.98-28.68-28.05Z"/>
        <path class="cls-20" d="M675.32,786.14c-6.96-.84-13.43,5.41-14.46,13.96-1.03,8.55,3.77,16.16,10.72,17,6.95.84,13.43-5.41,14.46-13.96,1.03-8.55-3.77-16.16-10.72-17Z"/>
        <path class="cls-20" d="M645.49,792.95c-6.96-.84-13.43,5.41-14.46,13.96-1.03,8.55,3.77,16.16,10.72,17,6.96.84,13.43-5.41,14.46-13.96,1.03-8.55-3.77-16.16-10.72-17Z"/>
        <path class="cls-20" d="M697.81,812.64c-6.62-2.29-14.27,2.46-17.08,10.6-2.81,8.14.28,16.59,6.91,18.88,6.62,2.29,14.27-2.46,17.08-10.6,2.81-8.14-.28-16.59-6.91-18.88Z"/>
        <path class="cls-20" d="M660.41,830.93c-13.3-1.94-26.14,10.62-28.68,28.05-2.54,17.43,6.19,33.12,19.49,35.06,13.3,1.94,26.15-10.62,28.68-28.04,2.54-17.43-6.19-33.12-19.49-35.06Z"/>
      </g>
      <path class="cls-3" d="M66.29,549.78c-7.77,26.63-12.12,69.07-12.12,98.03,0,173.17,148.3,313.55,331.23,313.55s331.23-140.38,331.23-313.55c0-28.96-3.98-71.4-11.75-98.03H66.29Z"/>
      <g>
        <path class="cls-13" d="M373.71,492.67l402.9,12.96c9.8.31,8.77,23.83-.97,23.38l-402.41-18.78c-8.7-.41-8.95-17.86.47-17.56"/>
        <g>
          <path class="cls-1" d="M369.17,515.32c0-34.85,16.41-50.26,16.41-50.26,0,0-25.08,4.38-25.08,43.45s-7.43,55.18-48.49,83.39c.91,2.12,7.56-.28,8.37,1.61,19.99-10.6,48.79-12.5,48.79-78.19Z"/>
          <path class="cls-1" d="M364.75,470.58s-6.78.49-11.55.55c0,0-10.31,8.76-10.31,42.01s-13.66,52.53-37.5,70.75c1.44,3.36,2.82,6.58,4.12,9.63,67.89-54.37,24.54-80.95,55.23-122.93Z"/>
          <path class="cls-1" d="M364.75,593.51c19.28-17.11,23.79,10.53,23.79-57.28,0-7.54-2.63-60.67,6.92-72.83,0,0-17.43,14.96-17.43,48.76s13.1,56.68-48.43,85.1c2.87,6.7,16.97-3.75,16.97-3.75.46,1.01,18.31-.98,18.19,0Z"/>
        </g>
        <path class="cls-13" d="M741.05,582.9l-377.07-44.22c-8.93-1.05-7.03-17.89,1.88-16.99l377.79,37.99c9.78.98,7.08,24.35-2.6,23.22"/>
      </g>
      <g>
        <g>
          <path class="cls-1" d="M250.57,597.92c4.15-5.04,7.17-10.32,8.84-15.71,15.44-.96,29.1,9.8,48.91,9.8,30.45,0,47.36-23.37,71.82-23.37,18.96,0,33.75,14.05,39.44,20.36-1.87,6.06-6.79-2.33-11.36,4.5,0,0-10.17-5.04-41.54-5.26-38.18,0-41.8,10.6-68.56,10.6-18.76,0-32.69.93-47.55-.93Z"/>
          <path class="cls-1" d="M518.54,593.03c40.78-28.3,63.24-14.01,70.85-6.81-22.24,3.08-46.01,5.4-70.85,6.81Z"/>
          <path class="cls-1" d="M155.95,600.5c-7.96-1.33-15.45-2.85-22.39-4.53-2.38-1.8-3.94-4.05-4.38-6.64-1.43-8.48,9.63-17.41,24.7-19.95,15.07-2.54,28.45,2.27,29.88,10.75,1.43,8.48-9.63,17.41-24.7,19.95-1.05.18-2.08.31-3.1.42Z"/>
        </g>
        <g>
          <path class="cls-17" d="M527.63,593.51c-11.86-3.17-25.54-2.37-38.86-3.43-30.98-2.48-57.14-4.07-80.56,3.43-12.76-5.74-5.12-41.97,43.29-23.37,2.59-15.48,36.34-38.61,49.41,3.61,15.93-9.57,34.57,4.98,26.72,19.76Z"/>
          <path class="cls-17" d="M346.56,593.51c-5.78,2.84-20.01,0-29.06,0-16.16,0-52.97-9.43-70.48,2.12-7.79-4.54-19.44-5.39-30.1-7.86-3.34-9.72,1.13-33.6,37.18-23.64,1.85-15.53,22.61-25.07,38.33.31,16.84-8.19,32.52-2.77,30.25,19.99,0,0,24.39-6.07,23.87,9.09Z"/>
          <path class="cls-17" d="M160.32,600.23c13.2-5.2,21.69-14.9,20.09-24.38-2.01-11.91-19.18-18.94-38.35-15.71-19.17,3.23-33.08,15.51-31.07,27.41.17,1.01.46,1.99.84,2.93-5.16-1.53-9.92-3.16-14.25-4.89-1.38-18.88,23.98-30.74,55.98-34.86,32.88-4.24,61.19,5.2,63.23,21.08,1.52,11.78-11.86,23.79-32.29,30.94-8.38-.67-16.47-1.52-24.19-2.52Z"/>
        </g>
        <g>
          <path class="cls-11" d="M254.38,591.35c-1.77-2.84-2.79-5.18-2.79-8.71,0-10.53,9.02-19.07,20.15-19.07,11.13,0,20.15,8.54,20.15,19.07,0,3.9-1.24,7.52-3.36,10.54l-34.14-1.83Z"/>
          <path class="cls-11" d="M462.15,591.08c-3.31.65-6.61-1.15-7.85-4.29h0c-2.82-7.17,1.93-15.75,10.6-19.16,8.67-3.41,17.99-.35,20.81,6.82,1.04,2.66,1.05,5.51.2,8.22-.78,2.49-2.93,4.31-5.49,4.81-4.59.91-12.76,2.52-18.27,3.6Z"/>
        </g>
      </g>
      <path class="cls-4" d="M394.1,459.91c-.67-.61-1.06-1.34-1.19-2.23l-4.34-29.64c-.26-1.77.72-3.43,2.39-4.05,12.69-4.75,22.33-15.77,25.15-29.29,4.46-21.43-23.46-20.87-39.17-20.87s-43.63-.56-39.17,20.87c2.81,13.52,12.45,24.53,25.15,29.29,1.67.62,2.65,2.29,2.39,4.05l-4.34,29.64c-.13.9-.52,1.62-1.19,2.23-30.82,28.01-78.59,11.99-104.79-20.55-3.02-3.74-8.56.58-6.31,4.49,15.6,27.11,47.06,48.35,78.7,48.35,27.38,0,39.07-20.58,49.56-20.58,11.26,0,24.16,22.94,49.56,20.58,38.84-3.6,47.37-18.57,42.09-29.75-1.93-4.08-43.67,25.46-74.49-2.54Z"/>
      <path class="cls-6" d="M672.3,464.04c-8.22,8.69-7.32,22.9,2.01,31.73,9.33,8.83,23.57,8.95,31.79.26,8.22-8.69,7.32-22.9-2.01-31.73-9.33-8.83-23.57-8.95-31.79-.26Z"/>
      <path class="cls-5" d="M261.5,229.25c-15.76-2.04-28.53,3.35-28.53,12.05s12.78,17.4,28.53,19.44c15.76,2.04,28.53-3.35,28.53-12.05s-12.78-17.4-28.53-19.44Z"/>
      <path class="cls-5" d="M491.7,229.25c-15.76,2.04-28.53,10.75-28.53,19.44s12.78,14.09,28.53,12.05c15.76-2.04,28.53-10.75,28.53-19.44s-12.78-14.09-28.53-12.05Z"/>
      <path class="cls-5" d="M392.97,379.87c-7.78-1.37-14.5-.77-15.01,1.34s5.37,4.94,13.15,6.31c7.78,1.37,14.5.77,15.01-1.34s-5.37-4.94-13.15-6.31Z"/>
      <g>
        <path class="cls-9" d="M102.06,585.88h-14.99c-2.78,0-5.06,2.27-5.06,5.06v70.59c0,157.51,166.18,275.54,300.49,275.54,160.17-.27,298.58-114.25,300.2-272.73.23-24.33-.03-48.97-.13-73.42-.01-2.78-2.28-5.03-5.06-5.03,0,0-573.21,0-575.45,0Z"/>
        <path class="cls-18" d="M97.59,585.6c-2.78,0-15.58,2.55-15.58,5.34v70.59c0,157.51,166.18,275.54,300.49,275.54-5.56-3.89-92.75,0-202.06-101.64-103.25-96-82.86-249.83-82.86-249.83Z"/>
      </g>
    </g>
    <g id="Layer_18" data-name="Layer 18">
      <path class="cls-4" d="M464.4,390.59c-2.16,4.17-3.99,8.54-5.54,12.93-1.55,4.39-2.83,8.84-3.63,13.31-.86,4.45-1.29,8.92-1.16,13.25.06,4.33.73,8.53,2.05,12.39,1.28,3.88,3.54,7.26,6.1,10.21,2.52,2.99,5.33,5.71,8.25,8.62l2.23,2.2c.8.7,1.62,1.39,2.42,2.12l1.2,1.11c.43.33.86.69,1.29,1.04.86.7,1.72,1.43,2.58,2.19,1.76,1.46,3.62,2.85,5.42,4.47.94.75,1.89,1.48,2.83,2.31.94.81,1.9,1.64,2.83,2.58l-.46,1.43c-1.3.14-2.58.16-3.87.17-1.29.02-2.58-.04-3.87-.11-2.52-.33-5.08-.7-7.58-1.34-1.24-.36-2.48-.73-3.71-1.15-.62-.21-1.24-.4-1.85-.63l-1.8-.81c-1.2-.54-2.38-1.14-3.58-1.72-1.15-.67-2.28-1.41-3.42-2.13l-1.68-1.13c-.54-.42-1.05-.88-1.57-1.32-1.03-.91-2.09-1.78-3.02-2.81-.92-1.05-1.81-2.12-2.66-3.22-.85-1.1-1.53-2.36-2.26-3.55-2.74-4.92-4.44-10.32-5.45-15.65-.99-5.36-1.02-10.75-.36-15.89.74-5.15,2.13-10.06,3.91-14.73,1.83-4.65,4.04-9.07,6.59-13.24,2.56-4.17,5.33-8.14,8.57-11.78l1.22.88Z"/>
    </g>
    <path class="cls-4" d="M250.35,293.17c15.64,0,26.9,9.27,27.01,9.36,3.49,2.78,8.5,6.63,8.5,5.42,0-15.5-15.34-28.06-34.26-28.06s-34.26,12.56-34.26,28.06c0,.77,1.21.53,2.6-1.39,1.53-2.11,3.4-3.84,5.46-5.14,6.94-4.38,11.81-8.25,24.95-8.25Z"/>
    <path class="cls-4" d="M496.17,293.17c15.64,0,26.9,9.27,27.01,9.36,3.49,2.78,8.5,6.63,8.5,5.42,0-15.5-15.34-28.06-34.26-28.06s-34.26,12.56-34.26,28.06c0,.77,1.21.53,2.6-1.39,1.53-2.11,3.4-3.84,5.46-5.14,6.94-4.38,11.81-8.25,24.95-8.25Z"/>
    <g id="Layer_21" data-name="Layer 21">
      <ellipse class="cls-4" cx="592.09" cy="529.02" rx="70.07" ry="135.95" transform="translate(-154.56 799.12) rotate(-61.67)"/>
      <path class="cls-5" d="M481.96,493.11c.63-2.02,4.52-.52,22.92,1.86,2.94.38,1.26.09-5.86-6.03-3.83-3.3-16.87-4.85-16.82-5,2.96-9.49,12.11-15.07,30.58-15.01,8.35.03-21.19-6.21-21.19-6.21,2.53-1.96,14.94-10.89,38.71-6.3,0,0-18.86-8.66-14.07-9.28,9.46-1.22,15.52-1.87,25.42-.5,45.59,6.28,75.66,28.66,100.2,42.2,24.55,13.53,55.26,53.23,58.76,70.32,3.51,17.1,5,36.63-17.69,41.13-24.19,4.8-40.17,2.02-53.57-.11-13.54-2.15-95.87-41.37-114.14-56.22-32.12-26.11-35.07-44.98-33.25-50.85Z"/>
      <path class="cls-10" d="M630.23,483.49c.98-4.14,61.03,35.06,70.38,75.67,3.92,17.01,5,36.63-17.69,41.13-24.19,4.8-40.17,2.02-53.57-.11-13.54-2.15-43.35-17.49-48.21-19.85-2.86-1.39,17.62-9.24,40.06-43.85,10.06-15.52,7.3-45.66,9.03-52.99Z"/>
      <path class="cls-21" d="M691.96,539.51c.02-.19.27-.24.36-.06,1.51,3.11,6.87,11.63,9.11,23.78,1.25,6.75,4.01,11.06-1.3,25.56-2.65,7.22-12.8,12.05-24.35,13.25-11.55,1.2-43.36,3.23-70.07-9.54-26.71-12.77-73.43-33.52-90.51-48.53s-26-23.33-33.6-41.68c-1.33-3.22-1.91-20.85,5.9-26.63,2.23-1.64-9.43,14.7,6.08,32.46s72.7,46.38,98.7,60.56c26,14.18,75.27,26.87,89.65,13.74,17.52-16,9.59-37.6,10.01-42.91Z"/>
    </g>
    <g id="Layer_16_copy" data-name="Layer 16 copy">
      <ellipse class="cls-4" cx="48.14" cy="585.88" rx="63.41" ry="47.98" transform="translate(-539.67 578.59) rotate(-84.59)"/>
      <path class="cls-16" d="M65.44,537.14c-12.46-6.11-27.69-.64-36.32,5.66-19.67,14.35-17.88,42.37-17.45,49.05.43,6.75,2.17,33.96,22.17,44.33,1.86.97,19.86,11.44,31.42-1.65,2.27-2.57-21.07-15.31-17.87-14.34,12.89,3.89,19.37,10.88,22.83,4.41,1.42-2.64,9.61-16.8,8.27-22.07-1.65-6.5-32.18-13.19-27.03-12.14,22.83,4.67,28.16-.36,28.54-3.01,1.5-10.31,2.1-19.73-.41-20.71-17.84-6.97-26.46-10.53-22.62-9.38,11.03,3.31,14.54,3.09,24.67,2.68,5.24-.21-2.99-9.99-6.31-14.35-1.45-1.91-4.51-5.84-9.9-8.49Z"/>
      <path class="cls-14" d="M74.2,539.24c13.64,5,8.31,65.6-1.62,85.45-4.96,9.93-27.87,24.75-24.44,20.62,6.03-7.27,9.25-19.76,17.08-41.59,8.97-24.99,8.97-64.48,8.97-64.48Z"/>
    </g>
  </g>
  <g id="TEXT" class="cls-22">
    <g>
      <path class="cls-8" d="M217.43,666.04c-2.6,0-4.2-3.3-4.2-6.4,0-2.4,4.7-6.8,5.7-6.8.2,0-2.8,3.7-2.2,4.5,6.8,0,22.6-8.9,22.6-17,0-4.5-3.9-7.1-10.1-7.1-30.8,0-84.71,52.2-82.5,80.1.7,8.4,6.9,10.7,14.6,10.7,18.8,0,49.4-16.9,73.1-36.1.1-.1,1.2.4.8.6-17.6,17.2-55.3,42.6-77.21,42.1-10.7-.2-20-4.9-20.6-17.1-2-35,57.1-82.81,90.81-82.81,8.7,0,14.8,3.7,14.8,11.4,0,10-15.8,23.9-25.6,23.9Z"/>
      <path class="cls-8" d="M232.83,698.05c11.4-12.1,28.6-24.1,32-24.1,2.3,0,5.5,5.4,4.3,6.5-2.6,2-17.9,23.1-18.2,27.8,6.2-1.7,20.4-15.6,26.7-21.5.7-.5,1.2.3.9.6-7.2,7.7-19.1,20.2-26.6,24.6-.8.5-2.3,1.2-3.4,1.5-.4.1-.8.2-1.5,0-2-.7-4.3-4.2-4.3-6,0-5.7,10.7-21.7,15.9-26.4-5.9,2.7-14.4,8.8-21.6,15.6-1,.9-5,5.1-5,5.1-3,3.2-5.2,6.2-6.2,8.6-.9,2-.7,3.4,1.6,3.7-1.2.5-2.3.1-3.3-.5-.7-.3-2.9-2.4-3.6-4-.3-.8-.1-4,2.9-10.6,5.3-12.1,18.9-31.7,28.3-44.2,2.7-3.7,7.8-9.8,12.1-13.4,1.6-1.2,3-1.8,3.8-1.8,5.6,0,9.5,5.9,7.6,4.8-2-1-5,1.1-8.8,5.4-9.8,11.1-25.5,32.2-33.6,48.3Z"/>
      <path class="cls-8" d="M306.03,675.04c-18.1,0-39,33.7-33.4,36.1,5.6,2.3,19.9-13.7,26.6-23.9-.5-.9-1.5-3.9-1.1-4.9.3-1,3.3-4,4.6-4.1,1-.1,2.1.7,2.3,1,1.9,3.1,4.3,5.4,8.3,5.1,6.7-.6,10.4-4.5,11.5-4.4-.5,1.4-4.5,4.7-9.4,6.3-2.2.7-4.3.9-5.9.9-1.5,0-2.5-.2-3-.4-2.7,13.3-23.4,27.7-34,27.1-4.6-.3-7.6-4.1-7.6-7.9,0-16.3,21.9-32.6,37.7-32.6,3.8,0,5.4,1.1,6.1,1.7.5.3.2.3-.2.3-1-.1-1.8-.3-2.5-.3Z"/>
      <path class="cls-8" d="M341.83,678.24c.5-.4,1.1-.5,1.4-.5,2.4,0,6.7,3.8,6.9,6.4,0,.3-.3-.1-1.3-.2-1.5-.1-3.7,2.4-7.5,8.4-3.6,5.7-6.5,13.4-6.1,14.8,12.6-7.7,28.4-26.1,37.8-41,.6-.8.8-.8.3.2-7.5,19.4-36.3,47.2-40.3,47.2-2.5,0-5-3.9-5.1-4.7-.5-3.9,2.2-11,4.8-16.4-4.6,5.3-11.5,13.1-15.5,16.4-3.1,2.6-6,5.1-7.1,5.1-1.9,0-4.4-3.9-4.6-4.7-.2-5.2,5-16.5,10.6-24.9,3-4.6,5-7,7.3-8.9.5-.5,1.1-.6,1.4-.6,2.6,0,6.7,3.9,6.8,6.5.1.3-.2-.1-1.1-.2-.9,0-2.1.9-3.5,2.5-4,4.6-12.7,18.1-13.5,23.8,3-1.6,11.4-8.4,20.6-19,3.8-5.6,5.8-8.6,7.7-10.2Z"/>
      <path class="cls-8" d="M452.53,719.75c-5.4,0-10.8.3-16.2.9-32.6,3.9-50.1,17.2-45.5,20.5-2.1,0-7.1-3.5-7.6-7.9-.5-5.3,11.1-10.5,24.2-13.9,8.6-6,19.2-18.2,27.7-28.1-4,.5-7.9.8-11.8.8-17.2,0-31.2-7-32.3-16.1-.2-1.3,1-3.8,2.4-5.5,2.9-3.4,7.6-3.6,8.3-3.2-1.8.6-3.9,2.3-4,4.1-.3,6.8,11.6,16.2,30.1,16.2,1.8,0,3.7-.1,5.7-.3,1.8-.2,3.5-.4,5.3-.7,19.6-24.6,40.7-56.7,58.6-57.1,5.7-.1,10.2,3.4,9.4,9.8-1.8,17.2-28.7,40.7-59.8,49.4-9.5,11.3-20.7,23-28.8,28.4,5-.9,10-1.5,14.3-1.7,2.3-.1,4.6-.2,7.1-.2,21.7,0,49.7,4.7,59.4,12.5-11.2-4.6-28.4-7.9-46.5-7.9ZM451.43,683.34c32.2-10.8,50.9-39,50-47.5-.3-2.6-1.8-4.4-4.4-3.6-8.2,2.5-26.4,28-45.6,51.1Z"/>
      <path class="cls-8" d="M508.53,687.44c-10.1,10.3-23.5,24.7-29.5,25.9h-.8c-1.6,0-4.7-2.7-4.7-5.1,0-4.3,5.5-14.4,11.2-22.3,3.5-4.9,7.7-9.7,10.2-11.7.5-.5,1.1-.6,1.4-.6,2.4,0,6.3,3.9,6.3,6.5,0,.4-.4-.1-1.3-.2-1.5-.2-5.7,5-9.1,9.4-5.1,6.7-10.1,15.4-10.1,18.3,4.8-2,15-11,19.8-15.6,5.2-5.1,12.6-13.8,18.3-18.2.5-.4,1-.5,1.4-.5,2.4,0,6.2,3.9,6.2,6.4,0,.4-.3-.1-1.2-.2-.7,0-2,.9-3.3,2.3-1.5,1.6-4.3,5.2-7.6,9.6-5,6.7-8.7,13.8-8.7,16.6,6.3-1.9,20.5-15.5,26.6-21.3.6-.5,1.1.3.8.6-8.7,9.5-25,26.2-31,26.2-.5,0-1.1-.2-1.6-.6-1.6-.8-3.6-3.1-3.6-4.9,0-1,.6-2.8,1.1-4.3,1.7-4.6,5.5-11.7,9.2-16.3Z"/>
      <path class="cls-8" d="M533.52,709.25c9.2-1,26-14.5,35.7-22.4.3-.2,1,.2.7.5-8.6,8.1-27.9,26.2-40.3,26.2-3.2,0-6.8-3-7.3-6.2-.1-.8-.1-1.8.2-3,.8-4.2,4.4-11.2,11.1-17.7,8.2-8.1,18.3-13.3,25.4-13.3,2.3,0,5.7,3.4,5.7,4.9,0,3.8-4.9,7.5-8.2,10-.2.2-.7,0-.5-.3,1.6-1.6,5.7-9.5,4.9-10.2-10.7.2-30.3,22.8-30.3,29.8,0,1.6,2,1.8,2.9,1.7Z"/>
      <path class="cls-8" d="M567.42,685.94c6.9-11.6,14-21.8,20.4-30.3,5.1-6.8,9.4-11.7,12.6-14.3,1.7-1.3,3-1.8,3.8-1.8,5.8,0,9.6,5.9,7.8,4.8-2.7-1.3-6.5,2.5-12.4,9.3-1.1,1.3-6,7.6-6,7.6-6,7.6-13.5,19-18.8,27.5,7.9-8.4,19.9-17.7,24.8-17.7,2.2,0,4.8,4.2,4.8,6.3,0,7.4-20.4,20.3-31.5,19.3,4.3,11.1,17.5,26.4,30.6,26.4,3.5,0,7-1.1,10.3-3.6.3-.3,1.1-.2.6.3-4.2,4-8.9,5.7-13.7,5.7-12.9,0-26.4-12.4-33.2-24.1-2.4,4.5-7.9,12.2-3.4,12.7-1.2.5-2.3.1-3.3-.5-.7-.3-2.7-2.4-3.5-4-.2-.8-.2-4.1,3-10.6.9-2,2-4,3-6-.4-1.6-.7-3.1-.3-4.2.6-1.6,2.5-2.4,4.4-2.8ZM572.02,693.44c.2,1,.4,1.7.6,2,8.8-1.2,20.3-14.1,23.3-20.1-6.9,1.7-22.9,16.7-23.9,18.1Z"/>
      <path class="cls-8" d="M360.93,786.04c-2.6,0-4.2-3.3-4.2-6.4,0-2.4,4.7-6.8,5.7-6.8.2,0-2.8,3.7-2.2,4.5,6.8,0,22.6-8.9,22.6-17,0-4.5-3.9-7.1-10.1-7.1-30.8,0-84.71,52.2-82.5,80.1.7,8.4,6.9,10.7,14.6,10.7,18.8,0,49.4-16.9,73.1-36.1.1-.1,1.2.4.8.6-17.6,17.2-55.3,42.6-77.21,42.1-10.7-.2-20-4.9-20.6-17.1-2-35,57.1-82.81,90.81-82.81,8.7,0,14.8,3.7,14.8,11.4,0,10-15.8,23.9-25.6,23.9Z"/>
      <path class="cls-8" d="M398.33,770.44c3-3.9,5.8-7.1,8.3-9.1,1.5-1.2,2.8-2,3.7-2,5.6-.3,9.6,5.5,7.7,4.4-3.5-1.6-10,7.8-14.4,13.2-4.3,5.5-8.4,11.4-13.4,18.7-8.7,13.2-16.2,25.9-18.6,32.3,4.3.5,20.9-15.8,26.8-21.2.6-.5,1,.3.7.6-4.9,5.6-22.3,23.8-28.3,26-1.3.5-2.3.1-3.2-.4-.8-.4-3-2.5-3.6-4-.1-.2-.3-.4-.3-1.5,0-3,4.6-12.7,16.8-31.8,6.2-9.7,12.6-18.4,17.8-25.2Z"/>
      <path class="cls-8" d="M421.83,807.44c-10.1,10.3-23.5,24.7-29.5,25.9h-.8c-1.6,0-4.7-2.7-4.7-5.1,0-4.3,5.5-14.4,11.2-22.3,3.5-4.9,7.7-9.7,10.2-11.7.5-.5,1.1-.6,1.4-.6,2.4,0,6.3,3.9,6.3,6.5,0,.4-.4-.1-1.3-.2-1.5-.2-5.7,5-9.1,9.4-5.1,6.7-10.1,15.4-10.1,18.3,4.8-2,15-11,19.8-15.6,5.2-5.1,12.6-13.8,18.3-18.2.5-.4,1-.5,1.4-.5,2.4,0,6.2,3.9,6.2,6.4,0,.4-.3-.1-1.2-.2-.7,0-2,.9-3.3,2.3-1.5,1.6-4.3,5.2-7.6,9.6-5,6.7-8.7,13.8-8.7,16.6,6.3-1.9,20.5-15.5,26.6-21.3.6-.5,1.1.3.8.6-8.7,9.5-25,26.2-31,26.2-.5,0-1.1-.2-1.6-.6-1.6-.8-3.6-3.1-3.6-4.9,0-1,.6-2.8,1.1-4.3,1.7-4.6,5.5-11.7,9.2-16.3Z"/>
      <path class="cls-8" d="M448.62,815.14c7.8-9.6,25.4-23.2,30.8-21.3,1.2.5,4.7,4.3,4.7,5.7,0,9-19.4,33.3-33.2,33.3-3.9,0-8.3-2.6-8.3-5.9,0-.5.4-.7.4-.4,0,1,1.8,2.9,3.8,2.9,10.1,0,28.3-26.6,29.2-31.6-1.7-.1-21.7,10.4-32.1,25.7-2.9,4.2-7,10-2.5,10.5-1.2.5-2.2.1-3.2-.5-.9-.3-2.9-2.4-3.6-4-.3-.8-.1-3.8,2.8-10.4,5.6-12.5,18-30.7,28.3-44.4,3.5-4.7,7.4-9.5,12.1-13.4,1.6-1.1,2.9-1.8,3.8-1.8,5.6,0,9.5,5.9,7.6,4.8-2.7-1.4-7.2,3-13.3,10.6-9.9,12.4-19.6,25.4-27.3,40.2Z"/>
      <path class="cls-8" d="M510.63,843.65c-11.7,0-24.7.4-39.5,1.6-58.4,4.7-104.11,15.8-104.11,24.2,0,1.1.7,2.1,2.3,3.1-6.1-.3-11.5-3.7-11.6-7.2-.2-13.2,67.4-22.2,105.71-24.5,10.8-.6,22.7-.9,34.9-.9,21.7,0,43.8.9,60.2,2.8,17,1.9,38.9,6.7,42.4,8.9-3.6-.7-25.6-5.2-46.9-6.4-13-.8-26.9-1.6-43.4-1.6Z"/>
    </g>
  </g>
</svg>